<svg xmlns="http://www.w3.org/2000/svg" width="680" height="710" viewBox="0 0 680 710">
  <defs>
    <style>
      @import url('https://fonts.googleapis.com/css2?family=Source+Sans+3:wght@400;600;700&amp;display=swap');
      text { font-family: 'Source Sans 3', 'Source Sans Pro', -apple-system, sans-serif; }
    </style>
    <marker id="arrow-enriched" viewBox="0 0 10 10" refX="9" refY="5" markerWidth="7" markerHeight="7" orient="auto-start-reverse">
      <path d="M 0 0 L 10 5 L 0 10 z" fill="#0d9488"/>
    </marker>
    <marker id="arrow-depleted" viewBox="0 0 10 10" refX="9" refY="5" markerWidth="7" markerHeight="7" orient="auto-start-reverse">
      <path d="M 0 0 L 10 5 L 0 10 z" fill="#dc2626"/>
    </marker>
    <marker id="arrow-neutral" viewBox="0 0 10 10" refX="9" refY="5" markerWidth="7" markerHeight="7" orient="auto-start-reverse">
      <path d="M 0 0 L 10 5 L 0 10 z" fill="#6b7280"/>
    </marker>
  </defs>
  <rect width="680" height="710" fill="white"/>

  <text x="340" y="30" text-anchor="middle" font-size="16" font-weight="700" fill="#1f2937">The 16 Triad Classes</text>
  <rect x="24" y="54" width="152" height="142" rx="8" fill="#f9fafb" stroke="#6b7280" stroke-width="1.5" stroke-opacity="0.4"/>
  <text x="100" y="72" text-anchor="middle" font-size="13" font-weight="700" fill="#6b7280">003</text>
  <text x="100" y="188" text-anchor="middle" font-size="10" fill="#6b7280" opacity="0.8">Empty</text>
  <circle cx="100" cy="85" r="8" fill="white" stroke="#6b7280" stroke-width="2"/>
  <text x="100" y="89" text-anchor="middle" font-size="9" font-weight="600" fill="#6b7280">A</text>
  <circle cx="58" cy="150" r="8" fill="white" stroke="#6b7280" stroke-width="2"/>
  <text x="58" y="154" text-anchor="middle" font-size="9" font-weight="600" fill="#6b7280">B</text>
  <circle cx="142" cy="150" r="8" fill="white" stroke="#6b7280" stroke-width="2"/>
  <text x="142" y="154" text-anchor="middle" font-size="9" font-weight="600" fill="#6b7280">C</text>
  <rect x="184" y="54" width="152" height="142" rx="8" fill="#f9fafb" stroke="#6b7280" stroke-width="1.5" stroke-opacity="0.4"/>
  <text x="260" y="72" text-anchor="middle" font-size="13" font-weight="700" fill="#6b7280">012</text>
  <text x="260" y="188" text-anchor="middle" font-size="10" fill="#6b7280" opacity="0.8">Single edge</text>
<line x1="254.0" y1="94.2" x2="224.0" y2="140.8" stroke="#6b7280" stroke-width="1.8" marker-end="url(#arrow-neutral)"/>
  <circle cx="260" cy="85" r="8" fill="white" stroke="#6b7280" stroke-width="2"/>
  <text x="260" y="89" text-anchor="middle" font-size="9" font-weight="600" fill="#6b7280">A</text>
  <circle cx="218" cy="150" r="8" fill="white" stroke="#6b7280" stroke-width="2"/>
  <text x="218" y="154" text-anchor="middle" font-size="9" font-weight="600" fill="#6b7280">B</text>
  <circle cx="302" cy="150" r="8" fill="white" stroke="#6b7280" stroke-width="2"/>
  <text x="302" y="154" text-anchor="middle" font-size="9" font-weight="600" fill="#6b7280">C</text>
  <rect x="344" y="54" width="152" height="142" rx="8" fill="#fef2f2" stroke="#dc2626" stroke-width="1.5" stroke-opacity="0.4"/>
  <text x="420" y="72" text-anchor="middle" font-size="13" font-weight="700" fill="#dc2626">102</text>
  <text x="420" y="188" text-anchor="middle" font-size="10" fill="#dc2626" opacity="0.8">Mutual dyad</text>
<line x1="410.7" y1="92.1" x2="380.6" y2="138.6" stroke="#dc2626" stroke-width="1.8" marker-end="url(#arrow-depleted)"/>
<line x1="387.3" y1="142.9" x2="417.4" y2="96.4" stroke="#dc2626" stroke-width="1.8" marker-end="url(#arrow-depleted)"/>
  <circle cx="420" cy="85" r="8" fill="white" stroke="#dc2626" stroke-width="2"/>
  <text x="420" y="89" text-anchor="middle" font-size="9" font-weight="600" fill="#dc2626">A</text>
  <circle cx="378" cy="150" r="8" fill="white" stroke="#dc2626" stroke-width="2"/>
  <text x="378" y="154" text-anchor="middle" font-size="9" font-weight="600" fill="#dc2626">B</text>
  <circle cx="462" cy="150" r="8" fill="white" stroke="#dc2626" stroke-width="2"/>
  <text x="462" y="154" text-anchor="middle" font-size="9" font-weight="600" fill="#dc2626">C</text>
  <rect x="504" y="54" width="152" height="142" rx="8" fill="#f9fafb" stroke="#6b7280" stroke-width="1.5" stroke-opacity="0.4"/>
  <text x="580" y="72" text-anchor="middle" font-size="13" font-weight="700" fill="#6b7280">021D</text>
  <text x="580" y="188" text-anchor="middle" font-size="10" fill="#6b7280" opacity="0.8">Divergent</text>
<line x1="574.0" y1="94.2" x2="544.0" y2="140.8" stroke="#6b7280" stroke-width="1.8" marker-end="url(#arrow-neutral)"/>
<line x1="586.0" y1="94.2" x2="616.0" y2="140.8" stroke="#6b7280" stroke-width="1.8" marker-end="url(#arrow-neutral)"/>
  <circle cx="580" cy="85" r="8" fill="white" stroke="#6b7280" stroke-width="2"/>
  <text x="580" y="89" text-anchor="middle" font-size="9" font-weight="600" fill="#6b7280">A</text>
  <circle cx="538" cy="150" r="8" fill="white" stroke="#6b7280" stroke-width="2"/>
  <text x="538" y="154" text-anchor="middle" font-size="9" font-weight="600" fill="#6b7280">B</text>
  <circle cx="622" cy="150" r="8" fill="white" stroke="#6b7280" stroke-width="2"/>
  <text x="622" y="154" text-anchor="middle" font-size="9" font-weight="600" fill="#6b7280">C</text>
  <rect x="24" y="204" width="152" height="142" rx="8" fill="#f9fafb" stroke="#6b7280" stroke-width="1.5" stroke-opacity="0.4"/>
  <text x="100" y="222" text-anchor="middle" font-size="13" font-weight="700" fill="#6b7280">021U</text>
  <text x="100" y="338" text-anchor="middle" font-size="10" fill="#6b7280" opacity="0.8">Convergent</text>
<line x1="64.0" y1="290.8" x2="94.0" y2="244.2" stroke="#6b7280" stroke-width="1.8" marker-end="url(#arrow-neutral)"/>
<line x1="136.0" y1="290.8" x2="106.0" y2="244.2" stroke="#6b7280" stroke-width="1.8" marker-end="url(#arrow-neutral)"/>
  <circle cx="100" cy="235" r="8" fill="white" stroke="#6b7280" stroke-width="2"/>
  <text x="100" y="239" text-anchor="middle" font-size="9" font-weight="600" fill="#6b7280">A</text>
  <circle cx="58" cy="300" r="8" fill="white" stroke="#6b7280" stroke-width="2"/>
  <text x="58" y="304" text-anchor="middle" font-size="9" font-weight="600" fill="#6b7280">B</text>
  <circle cx="142" cy="300" r="8" fill="white" stroke="#6b7280" stroke-width="2"/>
  <text x="142" y="304" text-anchor="middle" font-size="9" font-weight="600" fill="#6b7280">C</text>
  <rect x="184" y="204" width="152" height="142" rx="8" fill="#f0fdfa" stroke="#0d9488" stroke-width="1.5" stroke-opacity="0.4"/>
  <text x="260" y="222" text-anchor="middle" font-size="13" font-weight="700" fill="#0d9488">021C</text>
  <text x="260" y="338" text-anchor="middle" font-size="10" fill="#0d9488" opacity="0.8">Chain</text>
<line x1="254.0" y1="244.2" x2="224.0" y2="290.8" stroke="#0d9488" stroke-width="1.8" marker-end="url(#arrow-enriched)"/>
<line x1="229.0" y1="300.0" x2="291.0" y2="300.0" stroke="#0d9488" stroke-width="1.8" marker-end="url(#arrow-enriched)"/>
  <circle cx="260" cy="235" r="8" fill="white" stroke="#0d9488" stroke-width="2"/>
  <text x="260" y="239" text-anchor="middle" font-size="9" font-weight="600" fill="#0d9488">A</text>
  <circle cx="218" cy="300" r="8" fill="white" stroke="#0d9488" stroke-width="2"/>
  <text x="218" y="304" text-anchor="middle" font-size="9" font-weight="600" fill="#0d9488">B</text>
  <circle cx="302" cy="300" r="8" fill="white" stroke="#0d9488" stroke-width="2"/>
  <text x="302" y="304" text-anchor="middle" font-size="9" font-weight="600" fill="#0d9488">C</text>
  <rect x="344" y="204" width="152" height="142" rx="8" fill="#fef2f2" stroke="#dc2626" stroke-width="1.5" stroke-opacity="0.4"/>
  <text x="420" y="222" text-anchor="middle" font-size="13" font-weight="700" fill="#dc2626">111D</text>
  <text x="420" y="338" text-anchor="middle" font-size="10" fill="#dc2626" opacity="0.8">Mutual + out</text>
<line x1="410.7" y1="242.1" x2="380.6" y2="288.6" stroke="#dc2626" stroke-width="1.8" marker-end="url(#arrow-depleted)"/>
<line x1="387.3" y1="292.9" x2="417.4" y2="246.4" stroke="#dc2626" stroke-width="1.8" marker-end="url(#arrow-depleted)"/>
<line x1="426.0" y1="244.2" x2="456.0" y2="290.8" stroke="#dc2626" stroke-width="1.8" marker-end="url(#arrow-depleted)"/>
  <circle cx="420" cy="235" r="8" fill="white" stroke="#dc2626" stroke-width="2"/>
  <text x="420" y="239" text-anchor="middle" font-size="9" font-weight="600" fill="#dc2626">A</text>
  <circle cx="378" cy="300" r="8" fill="white" stroke="#dc2626" stroke-width="2"/>
  <text x="378" y="304" text-anchor="middle" font-size="9" font-weight="600" fill="#dc2626">B</text>
  <circle cx="462" cy="300" r="8" fill="white" stroke="#dc2626" stroke-width="2"/>
  <text x="462" y="304" text-anchor="middle" font-size="9" font-weight="600" fill="#dc2626">C</text>
  <rect x="504" y="204" width="152" height="142" rx="8" fill="#fef2f2" stroke="#dc2626" stroke-width="1.5" stroke-opacity="0.4"/>
  <text x="580" y="222" text-anchor="middle" font-size="13" font-weight="700" fill="#dc2626">111U</text>
  <text x="580" y="338" text-anchor="middle" font-size="10" fill="#dc2626" opacity="0.8">Mutual + in</text>
<line x1="570.7" y1="242.1" x2="540.6" y2="288.6" stroke="#dc2626" stroke-width="1.8" marker-end="url(#arrow-depleted)"/>
<line x1="547.3" y1="292.9" x2="577.4" y2="246.4" stroke="#dc2626" stroke-width="1.8" marker-end="url(#arrow-depleted)"/>
<line x1="616.0" y1="290.8" x2="586.0" y2="244.2" stroke="#dc2626" stroke-width="1.8" marker-end="url(#arrow-depleted)"/>
  <circle cx="580" cy="235" r="8" fill="white" stroke="#dc2626" stroke-width="2"/>
  <text x="580" y="239" text-anchor="middle" font-size="9" font-weight="600" fill="#dc2626">A</text>
  <circle cx="538" cy="300" r="8" fill="white" stroke="#dc2626" stroke-width="2"/>
  <text x="538" y="304" text-anchor="middle" font-size="9" font-weight="600" fill="#dc2626">B</text>
  <circle cx="622" cy="300" r="8" fill="white" stroke="#dc2626" stroke-width="2"/>
  <text x="622" y="304" text-anchor="middle" font-size="9" font-weight="600" fill="#dc2626">C</text>
  <rect x="24" y="354" width="152" height="142" rx="8" fill="#f0fdfa" stroke="#0d9488" stroke-width="1.5" stroke-opacity="0.4"/>
  <text x="100" y="372" text-anchor="middle" font-size="13" font-weight="700" fill="#0d9488">030T</text>
  <text x="100" y="488" text-anchor="middle" font-size="10" fill="#0d9488" opacity="0.8">Feedforward loop</text>
<line x1="94.0" y1="394.2" x2="64.0" y2="440.8" stroke="#0d9488" stroke-width="1.8" marker-end="url(#arrow-enriched)"/>
<line x1="69.0" y1="450.0" x2="131.0" y2="450.0" stroke="#0d9488" stroke-width="1.8" marker-end="url(#arrow-enriched)"/>
<line x1="106.0" y1="394.2" x2="136.0" y2="440.8" stroke="#0d9488" stroke-width="1.8" marker-end="url(#arrow-enriched)"/>
  <circle cx="100" cy="385" r="8" fill="white" stroke="#0d9488" stroke-width="2"/>
  <text x="100" y="389" text-anchor="middle" font-size="9" font-weight="600" fill="#0d9488">A</text>
  <circle cx="58" cy="450" r="8" fill="white" stroke="#0d9488" stroke-width="2"/>
  <text x="58" y="454" text-anchor="middle" font-size="9" font-weight="600" fill="#0d9488">B</text>
  <circle cx="142" cy="450" r="8" fill="white" stroke="#0d9488" stroke-width="2"/>
  <text x="142" y="454" text-anchor="middle" font-size="9" font-weight="600" fill="#0d9488">C</text>
  <rect x="184" y="354" width="152" height="142" rx="8" fill="#fef2f2" stroke="#dc2626" stroke-width="1.5" stroke-opacity="0.4"/>
  <text x="260" y="372" text-anchor="middle" font-size="13" font-weight="700" fill="#dc2626">030C</text>
  <text x="260" y="488" text-anchor="middle" font-size="10" fill="#dc2626" opacity="0.8">Directed cycle</text>
<line x1="254.0" y1="394.2" x2="224.0" y2="440.8" stroke="#dc2626" stroke-width="1.8" marker-end="url(#arrow-depleted)"/>
<line x1="229.0" y1="450.0" x2="291.0" y2="450.0" stroke="#dc2626" stroke-width="1.8" marker-end="url(#arrow-depleted)"/>
<line x1="296.0" y1="440.8" x2="266.0" y2="394.2" stroke="#dc2626" stroke-width="1.8" marker-end="url(#arrow-depleted)"/>
  <circle cx="260" cy="385" r="8" fill="white" stroke="#dc2626" stroke-width="2"/>
  <text x="260" y="389" text-anchor="middle" font-size="9" font-weight="600" fill="#dc2626">A</text>
  <circle cx="218" cy="450" r="8" fill="white" stroke="#dc2626" stroke-width="2"/>
  <text x="218" y="454" text-anchor="middle" font-size="9" font-weight="600" fill="#dc2626">B</text>
  <circle cx="302" cy="450" r="8" fill="white" stroke="#dc2626" stroke-width="2"/>
  <text x="302" y="454" text-anchor="middle" font-size="9" font-weight="600" fill="#dc2626">C</text>
  <rect x="344" y="354" width="152" height="142" rx="8" fill="#fef2f2" stroke="#dc2626" stroke-width="1.5" stroke-opacity="0.4"/>
  <text x="420" y="372" text-anchor="middle" font-size="13" font-weight="700" fill="#dc2626">201</text>
  <text x="420" y="488" text-anchor="middle" font-size="10" fill="#dc2626" opacity="0.8">Two mutual</text>
<line x1="410.7" y1="392.1" x2="380.6" y2="438.6" stroke="#dc2626" stroke-width="1.8" marker-end="url(#arrow-depleted)"/>
<line x1="387.3" y1="442.9" x2="417.4" y2="396.4" stroke="#dc2626" stroke-width="1.8" marker-end="url(#arrow-depleted)"/>
<line x1="422.6" y1="396.4" x2="452.7" y2="442.9" stroke="#dc2626" stroke-width="1.8" marker-end="url(#arrow-depleted)"/>
<line x1="459.4" y1="438.6" x2="429.3" y2="392.1" stroke="#dc2626" stroke-width="1.8" marker-end="url(#arrow-depleted)"/>
  <circle cx="420" cy="385" r="8" fill="white" stroke="#dc2626" stroke-width="2"/>
  <text x="420" y="389" text-anchor="middle" font-size="9" font-weight="600" fill="#dc2626">A</text>
  <circle cx="378" cy="450" r="8" fill="white" stroke="#dc2626" stroke-width="2"/>
  <text x="378" y="454" text-anchor="middle" font-size="9" font-weight="600" fill="#dc2626">B</text>
  <circle cx="462" cy="450" r="8" fill="white" stroke="#dc2626" stroke-width="2"/>
  <text x="462" y="454" text-anchor="middle" font-size="9" font-weight="600" fill="#dc2626">C</text>
  <rect x="504" y="354" width="152" height="142" rx="8" fill="#fef2f2" stroke="#dc2626" stroke-width="1.5" stroke-opacity="0.4"/>
  <text x="580" y="372" text-anchor="middle" font-size="13" font-weight="700" fill="#dc2626">120D</text>
  <text x="580" y="488" text-anchor="middle" font-size="10" fill="#dc2626" opacity="0.8">Mutual + FFL</text>
<line x1="570.7" y1="392.1" x2="540.6" y2="438.6" stroke="#dc2626" stroke-width="1.8" marker-end="url(#arrow-depleted)"/>
<line x1="547.3" y1="442.9" x2="577.4" y2="396.4" stroke="#dc2626" stroke-width="1.8" marker-end="url(#arrow-depleted)"/>
<line x1="586.0" y1="394.2" x2="616.0" y2="440.8" stroke="#dc2626" stroke-width="1.8" marker-end="url(#arrow-depleted)"/>
<line x1="549.0" y1="450.0" x2="611.0" y2="450.0" stroke="#dc2626" stroke-width="1.8" marker-end="url(#arrow-depleted)"/>
  <circle cx="580" cy="385" r="8" fill="white" stroke="#dc2626" stroke-width="2"/>
  <text x="580" y="389" text-anchor="middle" font-size="9" font-weight="600" fill="#dc2626">A</text>
  <circle cx="538" cy="450" r="8" fill="white" stroke="#dc2626" stroke-width="2"/>
  <text x="538" y="454" text-anchor="middle" font-size="9" font-weight="600" fill="#dc2626">B</text>
  <circle cx="622" cy="450" r="8" fill="white" stroke="#dc2626" stroke-width="2"/>
  <text x="622" y="454" text-anchor="middle" font-size="9" font-weight="600" fill="#dc2626">C</text>
  <rect x="24" y="504" width="152" height="142" rx="8" fill="#fef2f2" stroke="#dc2626" stroke-width="1.5" stroke-opacity="0.4"/>
  <text x="100" y="522" text-anchor="middle" font-size="13" font-weight="700" fill="#dc2626">120U</text>
  <text x="100" y="638" text-anchor="middle" font-size="10" fill="#dc2626" opacity="0.8">Mutual + conv.</text>
<line x1="90.7" y1="542.1" x2="60.6" y2="588.6" stroke="#dc2626" stroke-width="1.8" marker-end="url(#arrow-depleted)"/>
<line x1="67.3" y1="592.9" x2="97.4" y2="546.4" stroke="#dc2626" stroke-width="1.8" marker-end="url(#arrow-depleted)"/>
<line x1="136.0" y1="590.8" x2="106.0" y2="544.2" stroke="#dc2626" stroke-width="1.8" marker-end="url(#arrow-depleted)"/>
<line x1="131.0" y1="600.0" x2="69.0" y2="600.0" stroke="#dc2626" stroke-width="1.8" marker-end="url(#arrow-depleted)"/>
  <circle cx="100" cy="535" r="8" fill="white" stroke="#dc2626" stroke-width="2"/>
  <text x="100" y="539" text-anchor="middle" font-size="9" font-weight="600" fill="#dc2626">A</text>
  <circle cx="58" cy="600" r="8" fill="white" stroke="#dc2626" stroke-width="2"/>
  <text x="58" y="604" text-anchor="middle" font-size="9" font-weight="600" fill="#dc2626">B</text>
  <circle cx="142" cy="600" r="8" fill="white" stroke="#dc2626" stroke-width="2"/>
  <text x="142" y="604" text-anchor="middle" font-size="9" font-weight="600" fill="#dc2626">C</text>
  <rect x="184" y="504" width="152" height="142" rx="8" fill="#fef2f2" stroke="#dc2626" stroke-width="1.5" stroke-opacity="0.4"/>
  <text x="260" y="522" text-anchor="middle" font-size="13" font-weight="700" fill="#dc2626">120C</text>
  <text x="260" y="638" text-anchor="middle" font-size="10" fill="#dc2626" opacity="0.8">Mutual + cycle</text>
<line x1="250.7" y1="542.1" x2="220.6" y2="588.6" stroke="#dc2626" stroke-width="1.8" marker-end="url(#arrow-depleted)"/>
<line x1="227.3" y1="592.9" x2="257.4" y2="546.4" stroke="#dc2626" stroke-width="1.8" marker-end="url(#arrow-depleted)"/>
<line x1="229.0" y1="600.0" x2="291.0" y2="600.0" stroke="#dc2626" stroke-width="1.8" marker-end="url(#arrow-depleted)"/>
<line x1="296.0" y1="590.8" x2="266.0" y2="544.2" stroke="#dc2626" stroke-width="1.8" marker-end="url(#arrow-depleted)"/>
  <circle cx="260" cy="535" r="8" fill="white" stroke="#dc2626" stroke-width="2"/>
  <text x="260" y="539" text-anchor="middle" font-size="9" font-weight="600" fill="#dc2626">A</text>
  <circle cx="218" cy="600" r="8" fill="white" stroke="#dc2626" stroke-width="2"/>
  <text x="218" y="604" text-anchor="middle" font-size="9" font-weight="600" fill="#dc2626">B</text>
  <circle cx="302" cy="600" r="8" fill="white" stroke="#dc2626" stroke-width="2"/>
  <text x="302" y="604" text-anchor="middle" font-size="9" font-weight="600" fill="#dc2626">C</text>
  <rect x="344" y="504" width="152" height="142" rx="8" fill="#fef2f2" stroke="#dc2626" stroke-width="1.5" stroke-opacity="0.4"/>
  <text x="420" y="522" text-anchor="middle" font-size="13" font-weight="700" fill="#dc2626">210</text>
  <text x="420" y="638" text-anchor="middle" font-size="10" fill="#dc2626" opacity="0.8">Near-complete</text>
<line x1="410.7" y1="542.1" x2="380.6" y2="588.6" stroke="#dc2626" stroke-width="1.8" marker-end="url(#arrow-depleted)"/>
<line x1="387.3" y1="592.9" x2="417.4" y2="546.4" stroke="#dc2626" stroke-width="1.8" marker-end="url(#arrow-depleted)"/>
<line x1="422.6" y1="546.4" x2="452.7" y2="592.9" stroke="#dc2626" stroke-width="1.8" marker-end="url(#arrow-depleted)"/>
<line x1="459.4" y1="588.6" x2="429.3" y2="542.1" stroke="#dc2626" stroke-width="1.8" marker-end="url(#arrow-depleted)"/>
<line x1="389.0" y1="600.0" x2="451.0" y2="600.0" stroke="#dc2626" stroke-width="1.8" marker-end="url(#arrow-depleted)"/>
  <circle cx="420" cy="535" r="8" fill="white" stroke="#dc2626" stroke-width="2"/>
  <text x="420" y="539" text-anchor="middle" font-size="9" font-weight="600" fill="#dc2626">A</text>
  <circle cx="378" cy="600" r="8" fill="white" stroke="#dc2626" stroke-width="2"/>
  <text x="378" y="604" text-anchor="middle" font-size="9" font-weight="600" fill="#dc2626">B</text>
  <circle cx="462" cy="600" r="8" fill="white" stroke="#dc2626" stroke-width="2"/>
  <text x="462" y="604" text-anchor="middle" font-size="9" font-weight="600" fill="#dc2626">C</text>
  <rect x="504" y="504" width="152" height="142" rx="8" fill="#fef2f2" stroke="#dc2626" stroke-width="1.5" stroke-opacity="0.4"/>
  <text x="580" y="522" text-anchor="middle" font-size="13" font-weight="700" fill="#dc2626">300</text>
  <text x="580" y="638" text-anchor="middle" font-size="10" fill="#dc2626" opacity="0.8">Complete</text>
<line x1="570.7" y1="542.1" x2="540.6" y2="588.6" stroke="#dc2626" stroke-width="1.8" marker-end="url(#arrow-depleted)"/>
<line x1="547.3" y1="592.9" x2="577.4" y2="546.4" stroke="#dc2626" stroke-width="1.8" marker-end="url(#arrow-depleted)"/>
<line x1="582.6" y1="546.4" x2="612.7" y2="592.9" stroke="#dc2626" stroke-width="1.8" marker-end="url(#arrow-depleted)"/>
<line x1="619.4" y1="588.6" x2="589.3" y2="542.1" stroke="#dc2626" stroke-width="1.8" marker-end="url(#arrow-depleted)"/>
<line x1="549.0" y1="604.0" x2="611.0" y2="604.0" stroke="#dc2626" stroke-width="1.8" marker-end="url(#arrow-depleted)"/>
<line x1="611.0" y1="596.0" x2="549.0" y2="596.0" stroke="#dc2626" stroke-width="1.8" marker-end="url(#arrow-depleted)"/>
  <circle cx="580" cy="535" r="8" fill="white" stroke="#dc2626" stroke-width="2"/>
  <text x="580" y="539" text-anchor="middle" font-size="9" font-weight="600" fill="#dc2626">A</text>
  <circle cx="538" cy="600" r="8" fill="white" stroke="#dc2626" stroke-width="2"/>
  <text x="538" y="604" text-anchor="middle" font-size="9" font-weight="600" fill="#dc2626">B</text>
  <circle cx="622" cy="600" r="8" fill="white" stroke="#dc2626" stroke-width="2"/>
  <text x="622" y="604" text-anchor="middle" font-size="9" font-weight="600" fill="#dc2626">C</text>
  <rect x="20" y="670" width="640" height="30" rx="6" fill="#f8fafc" stroke="#e2e8f0" stroke-width="1"/>
  <rect x="40" y="678" width="14" height="14" rx="3" fill="#f0fdfa" stroke="#0d9488" stroke-width="1.5"/>
  <text x="60" y="689" font-size="11" font-weight="600" fill="#0d9488">Enriched (100% / 96% of graphs)</text>
  <rect x="320" y="678" width="14" height="14" rx="3" fill="#fef2f2" stroke="#dc2626" stroke-width="1.5"/>
  <text x="340" y="689" font-size="11" font-weight="600" fill="#dc2626">Depleted (97–99% of graphs)</text>
  <rect x="510" y="678" width="14" height="14" rx="3" fill="#f9fafb" stroke="#6b7280" stroke-width="1.5"/>
  <text x="530" y="689" font-size="11" font-weight="600" fill="#6b7280">Baseline</text>
</svg>